# xmcd
#
# Track frame offsets:
#	150
#	24990
#	43215
#	62358
#	80880
#
# Disc length: 1519 seconds
#
# Revision: 2
# Processed by: cddbd v1.5PL3 Copyright (c) Steve Scherf et al.
# Submitted via: EasyCDDAExtractor 6.5.4.1
#
DISCID=3905ed05
DTITLE=One Turned Three - Last Second Chances
DYEAR=2004
DGENRE=Alternative
TTITLE0=For Tomorrow
TTITLE1=Why
TTITLE2=1 in 25
TTITLE3=All We Have Left
TTITLE4=Lost in the Crowd
EXTD=
EXTT0=
EXTT1=
EXTT2=
EXTT3=
EXTT4=
PLAYORDER=
